<?xml version="1.0" encoding="UTF-8" standalone="no"?><!DOCTYPE svg PUBLIC "-//W3C//DTD SVG 1.1//EN" "http://www.w3.org/Graphics/SVG/1.1/DTD/svg11.dtd"><svg width="100%" height="100%" viewBox="0 0 3174 1227" version="1.1" xmlns="http://www.w3.org/2000/svg" xmlns:xlink="http://www.w3.org/1999/xlink" xml:space="preserve" style="fill-rule:evenodd;clip-rule:evenodd;stroke-linecap:round;stroke-linejoin:round;stroke-miterlimit:1.41421;"><circle cx="379.697" cy="253.516" r="7.5" style="fill:none;stroke-width:1px;stroke:#f64747;"/><path d="M1490.93,905.87c-2.274,-3.459 -1.312,-8.113 2.147,-10.387c3.459,-2.274 8.113,-1.312 10.387,2.147c2.274,3.458 1.312,8.113 -2.147,10.387c-3.459,2.274 -8.113,1.312 -10.387,-2.147Z" style="fill:none;stroke-width:1px;stroke:#f64747;"/><path d="M1168.49,596.002c-0.94,4.031 -4.976,6.541 -9.007,5.601c-4.031,-0.94 -6.541,-4.976 -5.601,-9.007c0.94,-4.031 4.976,-6.541 9.007,-5.601c4.032,0.94 6.541,4.976 5.601,9.007Z" style="fill:none;stroke-width:1px;stroke:#f64747;"/><path d="M2191.75,519.887c3.968,-1.181 8.147,1.082 9.328,5.049c1.18,3.968 -1.083,8.147 -5.05,9.328c-3.967,1.18 -8.147,-1.082 -9.327,-5.05c-1.181,-3.967 1.082,-8.147 5.049,-9.327Z" style="fill:none;stroke-width:1px;stroke:#f64747;"/><path d="M1624.62,265.513c3.628,-1.992 8.192,-0.664 10.184,2.964c1.993,3.628 0.665,8.191 -2.963,10.184c-3.628,1.993 -8.192,0.665 -10.184,-2.963c-1.993,-3.629 -0.665,-8.192 2.963,-10.185Z" style="fill:none;stroke-width:1px;stroke:#f64747;"/><path d="M2392.96,217.51c-3.447,-2.292 -4.385,-6.951 -2.094,-10.398c2.292,-3.447 6.951,-4.385 10.398,-2.093c3.447,2.291 4.385,6.951 2.094,10.398c-2.292,3.447 -6.951,4.385 -10.398,2.093Z" style="fill:none;stroke-width:1px;stroke:#f64747;"/><path d="M787.06,818.515c3.628,-1.993 8.191,-0.665 10.184,2.964c1.993,3.628 0.665,8.191 -2.964,10.184c-3.628,1.992 -8.191,0.665 -10.184,-2.964c-1.992,-3.628 -0.664,-8.191 2.964,-10.184Z" style="fill:none;stroke-width:1px;stroke:#f64747;"/><path d="M107.673,759.907c-1.658,-3.793 0.075,-8.219 3.867,-9.877c3.793,-1.658 8.218,0.074 9.877,3.867c1.658,3.792 -0.074,8.218 -3.867,9.876c-3.792,1.659 -8.218,-0.074 -9.877,-3.866Z" style="fill:none;stroke-width:1px;stroke:#f64747;"/><path d="M2069.77,850.867c-2.258,3.469 -6.908,4.453 -10.377,2.195c-3.469,-2.258 -4.452,-6.908 -2.194,-10.378c2.258,-3.469 6.907,-4.452 10.377,-2.194c3.469,2.258 4.452,6.908 2.194,10.377Z" style="fill:none;stroke-width:1px;stroke:#f64747;"/><path d="M1137.38,386.729c-2.069,3.585 -6.66,4.815 -10.245,2.746c-3.585,-2.07 -4.815,-6.661 -2.746,-10.245c2.07,-3.585 6.66,-4.816 10.245,-2.746c3.585,2.069 4.816,6.66 2.746,10.245Z" style="fill:none;stroke-width:1px;stroke:#f64747;"/><path d="M2726.16,593.105c4.136,0.172 7.354,3.67 7.181,7.806c-0.172,4.136 -3.67,7.353 -7.806,7.181c-4.136,-0.173 -7.353,-3.671 -7.181,-7.806c0.173,-4.136 3.67,-7.354 7.806,-7.181Z" style="fill:none;stroke-width:1px;stroke:#f64747;"/><path d="M2025.37,650.578c4.139,0.021 7.482,3.399 7.461,7.539c-0.022,4.139 -3.4,7.482 -7.54,7.46c-4.139,-0.021 -7.482,-3.4 -7.46,-7.539c0.021,-4.139 3.4,-7.482 7.539,-7.46Z" style="fill:none;stroke-width:1px;stroke:#f64747;"/><path d="M2554.13,239.062c4.139,0.022 7.482,3.4 7.46,7.539c-0.022,4.139 -3.4,7.482 -7.539,7.461c-4.139,-0.022 -7.482,-3.4 -7.461,-7.539c0.022,-4.14 3.4,-7.483 7.54,-7.461Z" style="fill:none;stroke-width:1px;stroke:#f64747;"/><path d="M1192.28,195.45c4.133,-0.24 7.683,2.92 7.923,7.053c0.24,4.132 -2.92,7.682 -7.052,7.922c-4.133,0.24 -7.683,-2.92 -7.923,-7.052c-0.24,-4.132 2.92,-7.682 7.052,-7.923Z" style="fill:none;stroke-width:1px;stroke:#f64747;"/><path d="M2531.22,633.102c-2.128,-3.551 -0.972,-8.161 2.578,-10.289c3.551,-2.128 8.161,-0.972 10.289,2.578c2.127,3.551 0.972,8.161 -2.578,10.289c-3.551,2.128 -8.161,0.972 -10.289,-2.578Z" style="fill:none;stroke-width:1px;stroke:#f64747;"/><path d="M3059.99,221.586c-2.128,-3.551 -0.973,-8.161 2.578,-10.288c3.55,-2.128 8.161,-0.973 10.288,2.578c2.128,3.55 0.973,8.16 -2.578,10.288c-3.55,2.128 -8.16,0.973 -10.288,-2.578Z" style="fill:none;stroke-width:1px;stroke:#f64747;"/><path d="M458.534,489.697c-1.072,3.998 -5.188,6.375 -9.186,5.303c-3.998,-1.071 -6.375,-5.187 -5.303,-9.185c1.071,-3.999 5.187,-6.375 9.185,-5.303c3.999,1.071 6.375,5.187 5.304,9.185Z" style="fill:none;stroke-width:1px;stroke:#f64747;"/><path d="M1651.24,706.129c3.929,-1.301 8.176,0.833 9.477,4.762c1.301,3.93 -0.833,8.177 -4.762,9.478c-3.93,1.301 -8.176,-0.833 -9.478,-4.762c-1.301,-3.93 0.833,-8.177 4.763,-9.478Z" style="fill:none;stroke-width:1px;stroke:#f64747;"/><path d="M711.72,264.559c3.855,-1.509 8.209,0.395 9.719,4.249c1.509,3.855 -0.395,8.209 -4.249,9.719c-3.855,1.509 -8.209,-0.395 -9.719,-4.249c-1.509,-3.855 0.395,-8.209 4.249,-9.719Z" style="fill:none;stroke-width:1px;stroke:#f64747;"/><path d="M451.168,689.591c3.854,-1.51 8.209,0.394 9.718,4.249c1.509,3.854 -0.395,8.209 -4.249,9.718c-3.854,1.509 -8.209,-0.395 -9.718,-4.249c-1.51,-3.854 0.394,-8.209 4.249,-9.718Z" style="fill:none;stroke-width:1px;stroke:#f64747;"/><path d="M1324.03,618.247c-3.378,-2.392 -4.18,-7.076 -1.788,-10.455c2.392,-3.378 7.076,-4.18 10.455,-1.788c3.378,2.391 4.18,7.076 1.788,10.454c-2.391,3.379 -7.076,4.18 -10.455,1.789Z" style="fill:none;stroke-width:1px;stroke:#f64747;"/><path d="M2134.02,373.753c-0.404,4.12 -4.077,7.137 -8.196,6.733c-4.12,-0.404 -7.137,-4.076 -6.733,-8.196c0.404,-4.12 4.076,-7.136 8.196,-6.733c4.119,0.404 7.136,4.076 6.733,8.196Z" style="fill:none;stroke-width:1px;stroke:#f64747;"/><path d="M1537.3,134.889c0.477,4.112 -2.475,7.837 -6.586,8.314c-4.112,0.476 -7.837,-2.475 -8.314,-6.587c-0.476,-4.112 2.475,-7.837 6.587,-8.314c4.112,-0.476 7.837,2.476 8.313,6.587Z" style="fill:none;stroke-width:1px;stroke:#f64747;"/><path d="M1075.03,915.14c0.594,4.096 -2.249,7.905 -6.345,8.499c-4.097,0.595 -7.905,-2.248 -8.5,-6.345c-0.595,-4.096 2.249,-7.905 6.345,-8.499c4.096,-0.595 7.905,2.248 8.5,6.345Z" style="fill:none;stroke-width:1px;stroke:#f64747;"/><path d="M162.479,755.23c4.093,-0.62 7.919,2.199 8.539,6.291c0.621,4.093 -2.198,7.919 -6.291,8.54c-4.092,0.62 -7.919,-2.199 -8.539,-6.292c-0.62,-4.092 2.199,-7.919 6.291,-8.539Z" style="fill:none;stroke-width:1px;stroke:#f64747;"/><path d="M1723.66,834.483c-2.766,-3.079 -2.513,-7.825 0.566,-10.591c3.079,-2.767 7.825,-2.513 10.592,0.566c2.767,3.079 2.513,7.824 -0.566,10.591c-3.079,2.767 -7.825,2.513 -10.592,-0.566Z" style="fill:none;stroke-width:1px;stroke:#f64747;"/><path d="M886.93,333.181c-2.928,-2.927 -2.928,-7.679 -0.001,-10.606c2.927,-2.928 7.679,-2.928 10.606,-0.001c2.928,2.927 2.928,7.679 0.001,10.606c-2.927,2.928 -7.679,2.928 -10.606,0.001Z" style="fill:none;stroke-width:1px;stroke:#f64747;"/><path d="M2794.77,839.86c-1.237,3.95 -5.448,6.153 -9.398,4.916c-3.95,-1.237 -6.153,-5.449 -4.916,-9.399c1.237,-3.95 5.448,-6.153 9.399,-4.915c3.95,1.237 6.152,5.448 4.915,9.398Z" style="fill:none;stroke-width:1px;stroke:#f64747;"/><path d="M1799.78,460.184c-2.927,-2.926 -2.927,-7.679 -0.001,-10.606c2.927,-2.927 7.68,-2.928 10.607,-0.001c2.927,2.927 2.927,7.679 0.001,10.607c-2.927,2.927 -7.68,2.927 -10.607,0Z" style="fill:none;stroke-width:1px;stroke:#f64747;"/><path d="M1285.12,434.146c-0.838,4.054 -4.809,6.665 -8.863,5.827c-4.054,-0.837 -6.665,-4.808 -5.827,-8.862c0.837,-4.054 4.808,-6.665 8.862,-5.828c4.054,0.838 6.665,4.809 5.828,8.863Z" style="fill:none;stroke-width:1px;stroke:#f64747;"/><path d="M2699.72,440.218c3.981,-1.136 8.135,1.173 9.271,5.153c1.136,3.98 -1.173,8.134 -5.153,9.271c-3.98,1.136 -8.135,-1.173 -9.271,-5.153c-1.136,-3.981 1.173,-8.135 5.153,-9.271Z" style="fill:none;stroke-width:1px;stroke:#f64747;"/><path d="M447.556,987.148c-0.837,4.053 -4.809,6.665 -8.862,5.827c-4.054,-0.838 -6.665,-4.809 -5.828,-8.862c0.838,-4.054 4.809,-6.665 8.863,-5.828c4.053,0.838 6.665,4.809 5.827,8.863Z" style="fill:none;stroke-width:1px;stroke:#f64747;"/><path d="M1998.93,541.748c3.937,-1.28 8.172,0.876 9.453,4.812c1.28,3.936 -0.876,8.172 -4.812,9.452c-3.936,1.281 -8.172,-0.875 -9.452,-4.811c-1.281,-3.937 0.875,-8.172 4.811,-9.453Z" style="fill:none;stroke-width:1px;stroke:#f64747;"/><path d="M968.413,1070.19c3.515,-2.186 8.144,-1.107 10.33,2.408c2.186,3.515 1.107,8.143 -2.408,10.33c-3.515,2.186 -8.144,1.107 -10.33,-2.408c-2.186,-3.515 -1.107,-8.144 2.408,-10.33Z" style="fill:none;stroke-width:1px;stroke:#f64747;"/><path d="M317.383,111.608c1.072,-3.999 5.188,-6.375 9.186,-5.304c3.998,1.072 6.375,5.188 5.303,9.186c-1.071,3.998 -5.187,6.375 -9.185,5.303c-3.999,-1.071 -6.375,-5.187 -5.304,-9.185Z" style="fill:none;stroke-width:1px;stroke:#f64747;"/><path d="M1412.85,1031.78c-3.93,1.301 -8.176,-0.833 -9.478,-4.762c-1.301,-3.93 0.833,-8.176 4.762,-9.478c3.93,-1.301 8.177,0.833 9.478,4.763c1.301,3.929 -0.833,8.176 -4.762,9.477Z" style="fill:none;stroke-width:1px;stroke:#f64747;"/><path d="M9.491,870.852c-4.093,0.621 -7.919,-2.198 -8.539,-6.291c-0.621,-4.093 2.198,-7.919 6.291,-8.539c4.093,-0.621 7.919,2.198 8.539,6.291c0.621,4.093 -2.198,7.919 -6.291,8.539Z" style="fill:none;stroke-width:1px;stroke:#f64747;"/><path d="M604.491,464.294c3.584,2.07 4.815,6.66 2.745,10.245c-2.07,3.585 -6.661,4.815 -10.245,2.745c-3.585,-2.069 -4.815,-6.66 -2.746,-10.245c2.07,-3.585 6.661,-4.815 10.246,-2.745Z" style="fill:none;stroke-width:1px;stroke:#f64747;"/><path d="M1549.83,598.124c-0.24,-4.133 2.92,-7.683 7.053,-7.922c4.132,-0.24 7.682,2.92 7.922,7.052c0.239,4.133 -2.921,7.682 -7.053,7.922c-4.133,0.24 -7.682,-2.92 -7.922,-7.052Z" style="fill:none;stroke-width:1px;stroke:#f64747;"/><path d="M2004.67,187.574c-3.471,2.255 -8.12,1.269 -10.376,-2.202c-2.255,-3.471 -1.269,-8.12 2.202,-10.376c3.471,-2.255 8.12,-1.269 10.376,2.202c2.255,3.471 1.269,8.12 -2.202,10.376Z" style="fill:none;stroke-width:1px;stroke:#f64747;"/><path d="M329.392,516.4c2.307,3.437 1.391,8.1 -2.046,10.408c-3.436,2.307 -8.1,1.391 -10.407,-2.046c-2.308,-3.436 -1.391,-8.1 2.045,-10.407c3.437,-2.308 8.1,-1.391 10.408,2.045Z" style="fill:none;stroke-width:1px;stroke:#f64747;"/><path d="M1297.24,763.955c-3.184,2.644 -7.916,2.206 -10.561,-0.978c-2.644,-3.185 -2.206,-7.917 0.979,-10.562c3.184,-2.644 7.916,-2.206 10.561,0.979c2.644,3.184 2.206,7.916 -0.979,10.561Z" style="fill:none;stroke-width:1px;stroke:#f64747;"/><path d="M2273.86,324.845c3.875,1.457 5.838,5.785 4.382,9.659c-1.456,3.875 -5.784,5.839 -9.659,4.383c-3.875,-1.457 -5.838,-5.785 -4.382,-9.659c1.456,-3.875 5.784,-5.839 9.659,-4.383Z" style="fill:none;stroke-width:1px;stroke:#f64747;"/><path d="M844.415,629.869c-3.184,2.644 -7.917,2.206 -10.561,-0.978c-2.645,-3.185 -2.206,-7.917 0.978,-10.562c3.185,-2.644 7.917,-2.206 10.562,0.979c2.644,3.184 2.206,7.916 -0.979,10.561Z" style="fill:none;stroke-width:1px;stroke:#f64747;"/><path d="M709.678,847.541c3.924,1.32 6.037,5.577 4.717,9.5c-1.32,3.924 -5.577,6.037 -9.5,4.717c-3.923,-1.32 -6.037,-5.576 -4.717,-9.5c1.32,-3.923 5.577,-6.037 9.5,-4.717Z" style="fill:none;stroke-width:1px;stroke:#f64747;"/><path d="M1199.09,834.164c4.111,0.486 7.054,4.218 6.568,8.329c-0.486,4.11 -4.218,7.053 -8.329,6.567c-4.111,-0.485 -7.054,-4.217 -6.568,-8.328c0.486,-4.111 4.218,-7.054 8.329,-6.568Z" style="fill:none;stroke-width:1px;stroke:#f64747;"/><path d="M746.274,700.078c4.11,0.486 7.053,4.218 6.567,8.329c-0.486,4.11 -4.217,7.053 -8.328,6.567c-4.111,-0.485 -7.054,-4.217 -6.568,-8.328c0.486,-4.111 4.218,-7.054 8.329,-6.568Z" style="fill:none;stroke-width:1px;stroke:#f64747;"/><path d="M217.6,466.49c0.46,-4.113 4.174,-7.08 8.287,-6.62c4.114,0.46 7.081,4.174 6.621,8.287c-0.461,4.114 -4.174,7.08 -8.288,6.62c-4.113,-0.46 -7.08,-4.173 -6.62,-8.287Z" style="fill:none;stroke-width:1px;stroke:#f64747;"/><path d="M1764.2,920.2c-3.69,1.876 -8.209,0.402 -10.084,-3.288c-1.875,-3.69 -0.402,-8.208 3.288,-10.084c3.69,-1.875 8.209,-0.402 10.084,3.288c1.876,3.69 0.402,8.209 -3.288,10.084Z" style="fill:none;stroke-width:1px;stroke:#f64747;"/><path d="M835.961,472.289c-3.584,2.07 -8.175,0.84 -10.245,-2.744c-2.07,-3.585 -0.84,-8.176 2.744,-10.246c3.585,-2.07 8.176,-0.84 10.246,2.745c2.07,3.584 0.84,8.175 -2.745,10.245Z" style="fill:none;stroke-width:1px;stroke:#f64747;"/><path d="M1429.36,400.316c3.698,1.858 5.193,6.37 3.335,10.069c-1.859,3.699 -6.37,5.193 -10.069,3.335c-3.699,-1.858 -5.193,-6.37 -3.335,-10.069c1.858,-3.699 6.37,-5.193 10.069,-3.335Z" style="fill:none;stroke-width:1px;stroke:#f64747;"/><path d="M2602.9,328.079c-0.067,-4.139 3.238,-7.554 7.377,-7.622c4.139,-0.067 7.554,3.239 7.621,7.377c0.068,4.139 -3.238,7.554 -7.377,7.621c-4.139,0.068 -7.553,-3.238 -7.621,-7.376Z" style="fill:none;stroke-width:1px;stroke:#f64747;"/><path d="M591.793,953.318c3.699,1.858 5.193,6.37 3.335,10.069c-1.858,3.698 -6.37,5.193 -10.068,3.335c-3.699,-1.859 -5.194,-6.37 -3.336,-10.069c1.859,-3.699 6.37,-5.193 10.069,-3.335Z" style="fill:none;stroke-width:1px;stroke:#f64747;"/><path d="M1892.53,390.221c-0.218,-4.134 2.961,-7.667 7.094,-7.885c4.134,-0.218 7.667,2.96 7.885,7.094c0.218,4.134 -2.96,7.667 -7.094,7.885c-4.134,0.218 -7.667,-2.961 -7.885,-7.094Z" style="fill:none;stroke-width:1px;stroke:#f64747;"/><path d="M844.514,988.961c-1.202,-3.961 1.039,-8.152 5,-9.354c3.961,-1.202 8.152,1.038 9.354,4.999c1.202,3.961 -1.038,8.153 -4.999,9.355c-3.961,1.201 -8.153,-1.039 -9.355,-5Z" style="fill:none;stroke-width:1px;stroke:#f64747;"/><path d="M261.014,164.957c2.927,-2.927 7.679,-2.927 10.606,0c2.927,2.927 2.927,7.68 0,10.607c-2.927,2.927 -7.679,2.927 -10.606,0c-2.927,-2.927 -2.927,-7.68 0,-10.607Z" style="fill:none;stroke-width:1px;stroke:#f64747;"/><path d="M1488.4,1049.57c-4.054,-0.838 -6.664,-4.809 -5.827,-8.863c0.838,-4.054 4.809,-6.664 8.863,-5.827c4.054,0.838 6.665,4.81 5.827,8.863c-0.838,4.054 -4.809,6.665 -8.863,5.827Z" style="fill:none;stroke-width:1px;stroke:#f64747;"/><path d="M80.956,901.125c-3.854,-1.509 -5.758,-5.864 -4.249,-9.718c1.509,-3.855 5.863,-5.759 9.718,-4.25c3.854,1.509 5.758,5.864 4.249,9.718c-1.509,3.855 -5.863,5.759 -9.718,4.25Z" style="fill:none;stroke-width:1px;stroke:#f64747;"/><path d="M514.101,291.87c2.07,3.585 0.84,8.176 -2.745,10.245c-3.585,2.07 -8.175,0.84 -10.245,-2.745c-2.07,-3.585 -0.84,-8.175 2.745,-10.245c3.585,-2.07 8.176,-0.84 10.245,2.745Z" style="fill:none;stroke-width:1px;stroke:#f64747;"/><path d="M1455.41,768.373c1.858,-3.699 6.37,-5.193 10.068,-3.334c3.699,1.858 5.193,6.37 3.335,10.068c-1.859,3.699 -6.37,5.193 -10.069,3.335c-3.699,-1.859 -5.193,-6.37 -3.334,-10.069Z" style="fill:none;stroke-width:1px;stroke:#f64747;"/><path d="M2199.34,185.254c-4.134,0.218 -7.667,-2.961 -7.885,-7.095c-0.218,-4.133 2.961,-7.666 7.095,-7.884c4.133,-0.218 7.666,2.961 7.884,7.095c0.218,4.133 -2.961,7.666 -7.094,7.884Z" style="fill:none;stroke-width:1px;stroke:#f64747;"/><path d="M1093.31,716.482c-3.961,1.201 -8.153,-1.039 -9.354,-5c-1.202,-3.961 1.038,-8.153 5,-9.354c3.961,-1.202 8.152,1.039 9.354,5c1.201,3.961 -1.039,8.152 -5,9.354Z" style="fill:none;stroke-width:1px;stroke:#f64747;"/><path d="M1781.21,171.567c0.051,4.139 -3.268,7.541 -7.407,7.593c-4.139,0.051 -7.541,-3.268 -7.592,-7.407c-0.052,-4.139 3.267,-7.541 7.406,-7.592c4.139,-0.052 7.541,3.267 7.593,7.406Z" style="fill:none;stroke-width:1px;stroke:#f64747;"/><path d="M2333.65,525.506c3.006,2.846 3.136,7.597 0.29,10.603c-2.845,3.006 -7.596,3.136 -10.602,0.291c-3.006,-2.846 -3.137,-7.597 -0.291,-10.603c2.846,-3.006 7.597,-3.136 10.603,-0.291Z" style="fill:none;stroke-width:1px;stroke:#f64747;"/><path d="M1764.5,241.004c3.54,2.146 4.671,6.762 2.526,10.302c-2.146,3.539 -6.762,4.671 -10.302,2.525c-3.54,-2.146 -4.671,-6.761 -2.526,-10.301c2.146,-3.54 6.762,-4.672 10.302,-2.526Z" style="fill:none;stroke-width:1px;stroke:#f64747;"/><path d="M2306.42,104.913c0.261,-4.131 3.827,-7.273 7.958,-7.012c4.132,0.261 7.273,3.827 7.012,7.958c-0.261,4.131 -3.827,7.273 -7.958,7.012c-4.131,-0.261 -7.273,-3.827 -7.012,-7.958Z" style="fill:none;stroke-width:1px;stroke:#f64747;"/><path d="M926.939,794.006c3.54,2.146 4.672,6.762 2.526,10.301c-2.146,3.54 -6.762,4.672 -10.301,2.526c-3.54,-2.146 -4.672,-6.762 -2.526,-10.301c2.146,-3.54 6.762,-4.672 10.301,-2.526Z" style="fill:none;stroke-width:1px;stroke:#f64747;"/><path d="M1809.36,352.942c3.046,-2.803 7.795,-2.605 10.598,0.442c2.802,3.046 2.604,7.794 -0.442,10.597c-3.046,2.803 -7.795,2.605 -10.597,-0.442c-2.803,-3.046 -2.605,-7.794 0.441,-10.597Z" style="fill:none;stroke-width:1px;stroke:#f64747;"/><path d="M570.096,657.501c-4.139,-0.075 -7.438,-3.495 -7.364,-7.634c0.075,-4.139 3.495,-7.438 7.634,-7.364c4.139,0.075 7.438,3.495 7.364,7.634c-0.075,4.139 -3.495,7.438 -7.634,7.364Z" style="fill:none;stroke-width:1px;stroke:#f64747;"/><path d="M1730.17,520.726c2.211,3.499 1.166,8.135 -2.334,10.347c-3.499,2.211 -8.135,1.165 -10.346,-2.334c-2.212,-3.499 -1.166,-8.135 2.333,-10.347c3.499,-2.211 8.135,-1.165 10.347,2.334Z" style="fill:none;stroke-width:1px;stroke:#f64747;"/><path d="M892.607,1073.73c2.212,3.499 1.166,8.135 -2.333,10.346c-3.499,2.212 -8.135,1.166 -10.347,-2.333c-2.211,-3.499 -1.166,-8.135 2.333,-10.347c3.5,-2.211 8.136,-1.166 10.347,2.334Z" style="fill:none;stroke-width:1px;stroke:#f64747;"/><path d="M326.271,438.85c0.281,4.13 -2.845,7.711 -6.975,7.991c-4.13,0.28 -7.71,-2.846 -7.99,-6.975c-0.28,-4.13 2.845,-7.711 6.975,-7.991c4.13,-0.28 7.71,2.845 7.99,6.975Z" style="fill:none;stroke-width:1px;stroke:#f64747;"/><path d="M311.098,657.388c1.658,-3.792 6.084,-5.525 9.877,-3.867c3.792,1.658 5.525,6.083 3.867,9.876c-1.658,3.793 -6.084,5.526 -9.876,3.868c-3.793,-1.659 -5.526,-6.084 -3.868,-9.877Z" style="fill:none;stroke-width:1px;stroke:#f64747;"/><path d="M1374.07,752.978c-4.08,0.698 -7.959,-2.048 -8.657,-6.128c-0.698,-4.08 2.048,-7.959 6.128,-8.657c4.08,-0.698 7.959,2.048 8.657,6.128c0.698,4.08 -2.048,7.959 -6.128,8.657Z" style="fill:none;stroke-width:1px;stroke:#f64747;"/><path d="M2226.26,263.541c2.627,3.198 2.164,7.928 -1.035,10.556c-3.198,2.628 -7.928,2.164 -10.556,-1.034c-2.627,-3.199 -2.164,-7.929 1.035,-10.556c3.198,-2.628 7.928,-2.164 10.556,1.034Z" style="fill:none;stroke-width:1px;stroke:#f64747;"/><path d="M921.248,618.892c-4.08,0.698 -7.959,-2.048 -8.657,-6.128c-0.698,-4.08 2.048,-7.959 6.128,-8.657c4.08,-0.698 7.959,2.048 8.657,6.128c0.698,4.08 -2.048,7.959 -6.128,8.657Z" style="fill:none;stroke-width:1px;stroke:#f64747;"/><path d="M1834.1,745.895c-4.08,0.698 -7.959,-2.047 -8.657,-6.128c-0.698,-4.08 2.048,-7.959 6.128,-8.657c4.08,-0.698 7.959,2.048 8.657,6.128c0.698,4.08 -2.048,7.96 -6.128,8.657Z" style="fill:none;stroke-width:1px;stroke:#f64747;"/><path d="M659.968,787.938c2.738,3.104 2.44,7.848 -0.665,10.585c-3.105,2.738 -7.848,2.44 -10.586,-0.665c-2.738,-3.104 -2.44,-7.848 0.665,-10.586c3.105,-2.737 7.848,-2.439 10.586,0.666Z" style="fill:none;stroke-width:1px;stroke:#f64747;"/><path d="M2334.11,723.317c2.628,3.199 2.164,7.929 -1.034,10.556c-3.198,2.628 -7.928,2.164 -10.556,-1.034c-2.628,-3.199 -2.164,-7.929 1.034,-10.556c3.199,-2.628 7.929,-2.164 10.556,1.034Z" style="fill:none;stroke-width:1px;stroke:#f64747;"/><path d="M2862.88,311.802c2.628,3.198 2.164,7.928 -1.034,10.556c-3.199,2.627 -7.929,2.164 -10.556,-1.035c-2.628,-3.198 -2.164,-7.928 1.034,-10.556c3.199,-2.627 7.929,-2.164 10.556,1.035Z" style="fill:none;stroke-width:1px;stroke:#f64747;"/><path d="M1138.2,786.043c3.317,2.476 4,7.179 1.524,10.496c-2.476,3.317 -7.18,4 -10.497,1.524c-3.317,-2.476 -4,-7.18 -1.524,-10.497c2.477,-3.317 7.18,-4 10.497,-1.523Z" style="fill:none;stroke-width:1px;stroke:#f64747;"/><path d="M169.863,527.685c2.455,-3.332 7.154,-4.045 10.486,-1.589c3.333,2.455 4.045,7.154 1.59,10.487c-2.455,3.332 -7.154,4.044 -10.487,1.589c-3.332,-2.455 -4.045,-7.154 -1.589,-10.487Z" style="fill:none;stroke-width:1px;stroke:#f64747;"/><path d="M1841.56,926.472c-4.133,-0.221 -7.31,-3.756 -7.089,-7.889c0.221,-4.134 3.756,-7.31 7.889,-7.089c4.134,0.221 7.31,3.756 7.09,7.889c-0.221,4.134 -3.757,7.31 -7.89,7.089Z" style="fill:none;stroke-width:1px;stroke:#f64747;"/><path d="M913.545,474.419c-4.14,0 -7.501,-3.36 -7.501,-7.5c0,-4.139 3.36,-7.5 7.5,-7.5c4.139,0 7.5,3.36 7.5,7.499c0,4.14 -3.36,7.501 -7.499,7.501Z" style="fill:none;stroke-width:1px;stroke:#f64747;"/><path d="M2907.6,750.826c1.918,3.668 0.498,8.204 -3.17,10.122c-3.668,1.919 -8.203,0.498 -10.122,-3.17c-1.918,-3.668 -0.498,-8.203 3.17,-10.122c3.668,-1.918 8.204,-0.498 10.122,3.17Z" style="fill:none;stroke-width:1px;stroke:#f64747;"/><path d="M1826.4,601.422c-4.139,0 -7.5,-3.36 -7.5,-7.499c-0.001,-4.14 3.36,-7.501 7.499,-7.501c4.14,0 7.5,3.36 7.501,7.499c0,4.14 -3.36,7.501 -7.5,7.501Z" style="fill:none;stroke-width:1px;stroke:#f64747;"/><path d="M2212.43,801.58c2.051,3.595 0.797,8.18 -2.799,10.23c-3.595,2.051 -8.18,0.797 -10.231,-2.798c-2.05,-3.596 -0.796,-8.18 2.799,-10.231c3.596,-2.051 8.18,-0.797 10.231,2.799Z" style="fill:none;stroke-width:1px;stroke:#f64747;"/><path d="M2741.19,390.064c2.05,3.596 0.796,8.18 -2.799,10.231c-3.596,2.051 -8.18,0.797 -10.231,-2.799c-2.051,-3.596 -0.797,-8.18 2.799,-10.231c3.595,-2.05 8.18,-0.796 10.231,2.799Z" style="fill:none;stroke-width:1px;stroke:#f64747;"/><path d="M1388.52,334.318c2.274,3.458 1.313,8.113 -2.146,10.387c-3.459,2.274 -8.113,1.313 -10.387,-2.146c-2.275,-3.459 -1.313,-8.113 2.146,-10.387c3.458,-2.274 8.113,-1.313 10.387,2.146Z" style="fill:none;stroke-width:1px;stroke:#f64747;"/><path d="M2563.35,394.853c2.011,-3.618 6.581,-4.923 10.199,-2.912c3.618,2.011 4.923,6.581 2.912,10.199c-2.011,3.618 -6.581,4.923 -10.199,2.912c-3.618,-2.011 -4.923,-6.581 -2.912,-10.199Z" style="fill:none;stroke-width:1px;stroke:#f64747;"/><path d="M550.952,887.32c2.275,3.458 1.313,8.113 -2.146,10.387c-3.458,2.274 -8.113,1.312 -10.387,-2.146c-2.274,-3.459 -1.312,-8.113 2.146,-10.387c3.459,-2.275 8.113,-1.313 10.387,2.146Z" style="fill:none;stroke-width:1px;stroke:#f64747;"/><path d="M824.822,1064.03c0.939,-4.031 4.975,-6.541 9.006,-5.602c4.032,0.94 6.542,4.976 5.602,9.007c-0.94,4.032 -4.976,6.542 -9.007,5.602c-4.031,-0.94 -6.541,-4.976 -5.601,-9.007Z" style="fill:none;stroke-width:1px;stroke:#f64747;"/><path d="M197.674,230.784l7.5,15l-15,0l7.5,-15Z" style="fill:none;stroke-width:1px;stroke:#f64747;"/><path d="M1578.2,1066.34l8.414,-14.507l8.24,12.534l-16.654,1.973Z" style="fill:none;stroke-width:1px;stroke:#f64747;"/><path d="M166.646,932.784l10.739,-12.881l6.009,13.743l-16.748,-0.862Z" style="fill:none;stroke-width:1px;stroke:#f64747;"/><path d="M608.257,332.145l-16.43,3.362l3.882,-14.489l12.548,11.127Z" style="fill:none;stroke-width:1px;stroke:#f64747;"/><path d="M347.704,757.176l-16.43,3.362l3.882,-14.488l12.548,11.126Z" style="fill:none;stroke-width:1px;stroke:#f64747;"/><path d="M1437.34,667.572l11.835,11.882l-14.239,4.716l2.404,-16.598Z" style="fill:none;stroke-width:1px;stroke:#f64747;"/><path d="M2120.73,250.887l4.459,-16.167l11.15,10.034l-15.609,6.133Z" style="fill:none;stroke-width:1px;stroke:#f64747;"/><path d="M1498.34,17.61l0.939,-16.744l13.02,7.449l-13.959,9.295Z" style="fill:none;stroke-width:1px;stroke:#f64747;"/><path d="M1032.71,799.031l0.457,-16.764l13.229,7.071l-13.686,9.693Z" style="fill:none;stroke-width:1px;stroke:#f64747;"/><path d="M1843.63,252.754l-15.975,-5.105l10.474,-10.738l5.501,15.843Z" style="fill:none;stroke-width:1px;stroke:#f64747;"/><path d="M661.447,657.385l5.589,-15.812l10.414,10.795l-16.003,5.017Z" style="fill:none;stroke-width:1px;stroke:#f64747;"/><path d="M1679.89,444.457l-16.282,4.017l3.299,-14.633l12.983,10.616Z" style="fill:none;stroke-width:1px;stroke:#f64747;"/><path d="M2525.92,85.613l11.105,12.568l-14.496,3.856l3.391,-16.424Z" style="fill:none;stroke-width:1px;stroke:#f64747;"/><path d="M842.327,997.459l-16.283,4.016l3.3,-14.632l12.983,10.616Z" style="fill:none;stroke-width:1px;stroke:#f64747;"/><path d="M117.104,602.261l9.663,13.707l-14.831,2.248l5.168,-15.955Z" style="fill:none;stroke-width:1px;stroke:#f64747;"/><path d="M1932.86,929.589l6.145,-15.604l10.025,11.157l-16.17,4.447Z" style="fill:none;stroke-width:1px;stroke:#f64747;"/><path d="M1004.88,472.653l5.302,-15.91l10.607,10.606l-15.909,5.304Z" style="fill:none;stroke-width:1px;stroke:#f64747;"/><path d="M2863.71,670.708l-16.555,2.675l4.483,-14.315l12.072,11.64Z" style="fill:none;stroke-width:1px;stroke:#f64747;"/><path d="M1917.73,599.656l5.302,-15.91l10.607,10.606l-15.909,5.304Z" style="fill:none;stroke-width:1px;stroke:#f64747;"/><path d="M2165.65,723.115l-16.448,3.276l3.959,-14.468l12.489,11.192Z" style="fill:none;stroke-width:1px;stroke:#f64747;"/><path d="M2694.41,311.6l-16.447,3.276l3.958,-14.469l12.489,11.193Z" style="fill:none;stroke-width:1px;stroke:#f64747;"/><path d="M1336.87,258.969l-16.207,4.31l3.035,-14.689l13.172,10.379Z" style="fill:none;stroke-width:1px;stroke:#f64747;"/><path d="M2520.51,475.538l11.33,12.365l-14.424,4.118l3.094,-16.483Z" style="fill:none;stroke-width:1px;stroke:#f64747;"/><path d="M499.303,811.971l-16.207,4.31l3.035,-14.69l13.172,10.38Z" style="fill:none;stroke-width:1px;stroke:#f64747;"/><path d="M483.676,189.853l16.43,-3.362l-3.882,14.488l-12.548,-11.126Z" style="fill:none;stroke-width:1px;stroke:#f64747;"/><path d="M1386.88,849.839l-11.835,-11.882l14.24,-4.715l-2.405,16.597Z" style="fill:none;stroke-width:1px;stroke:#f64747;"/><path d="M934.06,715.753l-11.835,-11.882l14.239,-4.715l-2.404,16.597Z" style="fill:none;stroke-width:1px;stroke:#f64747;"/><path d="M1736.18,324.321l-14.706,8.06l-0.566,-14.989l15.272,6.929Z" style="fill:none;stroke-width:1px;stroke:#f64747;"/><path d="M2411.9,664.203l-4.458,16.167l-11.15,-10.033l15.608,-6.134Z" style="fill:none;stroke-width:1px;stroke:#f64747;"/><path d="M2940.67,252.688l-4.458,16.167l-11.151,-10.034l15.609,-6.133Z" style="fill:none;stroke-width:1px;stroke:#f64747;"/><path d="M262.487,616.6l-11.836,-11.882l14.24,-4.715l-2.404,16.597Z" style="fill:none;stroke-width:1px;stroke:#f64747;"/><path d="M1199.57,710.019l-0.457,16.764l-13.228,-7.071l13.685,-9.693Z" style="fill:none;stroke-width:1px;stroke:#f64747;"/><path d="M1454.24,333.031l14.789,-7.909l0.411,14.995l-15.2,-7.086Z" style="fill:none;stroke-width:1px;stroke:#f64747;"/><path d="M1688.72,166.231l12.782,-10.856l3.572,14.569l-16.354,-3.713Z" style="fill:none;stroke-width:1px;stroke:#f64747;"/><path d="M746.752,575.933l-0.457,16.764l-13.229,-7.071l13.686,-9.693Z" style="fill:none;stroke-width:1px;stroke:#f64747;"/><path d="M14.555,687.141l-9.664,-13.707l14.831,-2.248l-5.167,15.955Z" style="fill:none;stroke-width:1px;stroke:#f64747;"/><path d="M2060.12,968.65l-6.145,15.604l-10.025,-11.157l16.17,-4.447Z" style="fill:none;stroke-width:1px;stroke:#f64747;"/><path d="M1134.04,504.859l-5.302,15.91l-10.607,-10.606l15.909,-5.304Z" style="fill:none;stroke-width:1px;stroke:#f64747;"/><path d="M2129.64,594.959l16.448,-3.276l-3.958,14.468l-12.49,-11.192Z" style="fill:none;stroke-width:1px;stroke:#f64747;"/><path d="M1579.79,352.02l15.383,-6.679l-0.81,14.978l-14.573,-8.299Z" style="fill:none;stroke-width:1px;stroke:#f64747;"/><path d="M2490.4,217.152l-13.048,-10.537l13.648,-6.223l-0.6,16.76Z" style="fill:none;stroke-width:1px;stroke:#f64747;"/><path d="M742.227,905.022l15.383,-6.679l-0.81,14.978l-14.573,-8.299Z" style="fill:none;stroke-width:1px;stroke:#f64747;"/><path d="M1292.82,133.348l16.207,-4.31l-3.035,14.69l-13.172,-10.38Z" style="fill:none;stroke-width:1px;stroke:#f64747;"/><path d="M485.872,604.669l-1.005,16.741l-12.99,-7.5l13.995,-9.241Z" style="fill:none;stroke-width:1px;stroke:#f64747;"/><path d="M1732.29,620.126l14.54,-8.357l0.87,14.975l-15.41,-6.618Z" style="fill:none;stroke-width:1px;stroke:#f64747;"/><path d="M788.061,174.348l14.073,-9.121l1.668,14.907l-15.741,-5.786Z" style="fill:none;stroke-width:1px;stroke:#f64747;"/><path d="M1206.71,604.014l-15.353,-6.748l11.54,-9.583l3.813,16.331Z" style="fill:none;stroke-width:1px;stroke:#f64747;"/><path d="M2179.77,482.714l1.744,16.68l-14.041,-5.277l12.297,-11.403Z" style="fill:none;stroke-width:1px;stroke:#f64747;"/><path d="M1605.06,231.713l5.23,15.934l-14.839,-2.189l9.609,-13.745Z" style="fill:none;stroke-width:1px;stroke:#f64747;"/><path d="M2372.08,250.51l11.696,-12.019l4.936,14.164l-16.632,-2.145Z" style="fill:none;stroke-width:1px;stroke:#f64747;"/><path d="M767.495,784.715l5.231,15.934l-14.84,-2.189l9.609,-13.745Z" style="fill:none;stroke-width:1px;stroke:#f64747;"/><path d="M1145.55,1009.97l5.688,15.777l-14.896,-1.761l9.208,-14.016Z" style="fill:none;stroke-width:1px;stroke:#f64747;"/><path d="M393.741,518.93l15.741,-5.787l-1.667,14.907l-14.074,-9.12Z" style="fill:none;stroke-width:1px;stroke:#f64747;"/><path d="M1711.26,744.21l-13.483,-9.974l13.372,-6.796l0.111,16.77Z" style="fill:none;stroke-width:1px;stroke:#f64747;"/><path d="M773.689,299.379l-13.996,-9.239l12.99,-7.501l1.006,16.74Z" style="fill:none;stroke-width:1px;stroke:#f64747;"/><path d="M1319.08,547.338l-0.031,16.77l-13.404,-6.733l13.435,-10.037Z" style="fill:none;stroke-width:1px;stroke:#f64747;"/><path d="M2074.87,413.178l14.583,-8.28l0.791,14.979l-15.374,-6.699Z" style="fill:none;stroke-width:1px;stroke:#f64747;"/><path d="M1487.83,185.929l12.503,-11.177l3.94,14.473l-16.443,-3.296Z" style="fill:none;stroke-width:1px;stroke:#f64747;"/><path d="M2385.83,375.611l-15.698,-5.901l11,-10.198l4.698,16.099Z" style="fill:none;stroke-width:1px;stroke:#f64747;"/><path d="M650.264,738.93l12.503,-11.176l3.94,14.473l-16.443,-3.297Z" style="fill:none;stroke-width:1px;stroke:#f64747;"/><path d="M1027.05,967.582l12.176,-11.532l4.355,14.354l-16.531,-2.822Z" style="fill:none;stroke-width:1px;stroke:#f64747;"/><path d="M121.533,282.896l15.91,5.303l-10.607,10.607l-5.303,-15.91Z" style="fill:none;stroke-width:1px;stroke:#f64747;"/><path d="M1663.57,1101.33l-4.309,-16.208l14.689,3.036l-10.38,13.172Z" style="fill:none;stroke-width:1px;stroke:#f64747;"/><path d="M244.899,981.668l-1.515,-16.702l13.968,5.469l-12.453,11.233Z" style="fill:none;stroke-width:1px;stroke:#f64747;"/><path d="M489.729,230.784l-9.241,13.995l-7.5,-12.99l16.741,-1.005Z" style="fill:none;stroke-width:1px;stroke:#f64747;"/><path d="M1417.76,822.296l16.77,0.033l-6.735,13.403l-10.035,-13.436Z" style="fill:none;stroke-width:1px;stroke:#f64747;"/><path d="M964.937,688.21l16.771,0.033l-6.735,13.403l-10.036,-13.436Z" style="fill:none;stroke-width:1px;stroke:#f64747;"/><path d="M1718.32,286.998l4.7,-16.099l10.999,10.199l-15.699,5.9Z" style="fill:none;stroke-width:1px;stroke:#f64747;"/><path d="M2372.68,651.026l-8.279,-14.584l14.979,-0.79l-6.7,15.374Z" style="fill:none;stroke-width:1px;stroke:#f64747;"/><path d="M2901.45,239.51l-8.279,-14.584l14.979,-0.79l-6.7,15.374Z" style="fill:none;stroke-width:1px;stroke:#f64747;"/><path d="M357.981,586.567l16.77,0.033l-6.734,13.403l-10.036,-13.436Z" style="fill:none;stroke-width:1px;stroke:#f64747;"/><path d="M1158.34,706.618l-11.531,-12.177l14.354,-4.354l-2.823,16.531Z" style="fill:none;stroke-width:1px;stroke:#f64747;"/><path d="M2292.86,473.908l-4.865,16.049l-10.894,-10.312l15.759,-5.737Z" style="fill:none;stroke-width:1px;stroke:#f64747;"/><path d="M1713.73,199.194l-1.362,16.715l-12.828,-7.775l14.19,-8.94Z" style="fill:none;stroke-width:1px;stroke:#f64747;"/><path d="M2292.9,169.276l15.443,-6.538l-0.946,14.97l-14.497,-8.432Z" style="fill:none;stroke-width:1px;stroke:#f64747;"/><path d="M876.17,752.196l-1.362,16.715l-12.827,-7.776l14.189,-8.939Z" style="fill:none;stroke-width:1px;stroke:#f64747;"/><path d="M1755.07,390.067l15.676,5.961l-11.039,10.156l-4.637,-16.117Z" style="fill:none;stroke-width:1px;stroke:#f64747;"/><path d="M49.632,665.196l16.525,2.859l-8.897,12.076l-7.628,-14.935Z" style="fill:none;stroke-width:1px;stroke:#f64747;"/><path d="M2022.52,951.395l-6.689,-15.379l14.979,0.8l-8.29,14.579Z" style="fill:none;stroke-width:1px;stroke:#f64747;"/><path d="M1095.57,489.638l-7.501,-15l15,-0.001l-7.499,15.001Z" style="fill:none;stroke-width:1px;stroke:#f64747;"/><path d="M2836.73,582.473l-9.816,13.598l-6.952,-13.292l16.768,-0.306Z" style="fill:none;stroke-width:1px;stroke:#f64747;"/><path d="M2135.47,635.922l-9.313,13.946l-7.432,-13.029l16.745,-0.917Z" style="fill:none;stroke-width:1px;stroke:#f64747;"/><path d="M2664.24,224.406l-9.314,13.947l-7.431,-13.03l16.745,-0.917Z" style="fill:none;stroke-width:1px;stroke:#f64747;"/><path d="M1594.16,390.823l-6.154,15.6l-10.019,-11.164l16.173,-4.436Z" style="fill:none;stroke-width:1px;stroke:#f64747;"/><path d="M2518.12,186.44l16.676,-1.776l-5.25,14.052l-11.426,-12.276Z" style="fill:none;stroke-width:1px;stroke:#f64747;"/><path d="M756.593,943.824l-6.154,15.601l-10.019,-11.164l16.173,-4.437Z" style="fill:none;stroke-width:1px;stroke:#f64747;"/><path d="M1301.24,173.859l-8.413,14.508l-8.241,-12.534l16.654,-1.974Z" style="fill:none;stroke-width:1px;stroke:#f64747;"/><path d="M463.675,726.861l-8.413,14.507l-8.241,-12.533l16.654,-1.974Z" style="fill:none;stroke-width:1px;stroke:#f64747;"/><path d="M286.189,370.521l9.24,-13.995l7.5,12.99l-16.74,1.005Z" style="fill:none;stroke-width:1px;stroke:#f64747;"/><path d="M1646.34,915.609l-16.771,-0.033l6.735,-13.403l10.036,13.436Z" style="fill:none;stroke-width:1px;stroke:#f64747;"/><path d="M737,429.558l7.229,15.133l-14.998,-0.27l7.769,-14.863Z" style="fill:none;stroke-width:1px;stroke:#f64747;"/><path d="M476.447,854.59l7.229,15.132l-14.997,-0.27l7.768,-14.862Z" style="fill:none;stroke-width:1px;stroke:#f64747;"/><path d="M1448.01,506.482l8.674,-14.354l8.013,12.68l-16.687,1.674Z" style="fill:none;stroke-width:1px;stroke:#f64747;"/><path d="M610.452,1059.48l8.673,-14.353l8.014,12.68l-16.687,1.673Z" style="fill:none;stroke-width:1px;stroke:#f64747;"/><path d="M1975.51,321.419l-16.765,-0.424l7.045,-13.242l9.72,13.666Z" style="fill:none;stroke-width:1px;stroke:#f64747;"/><path d="M908.602,902.289l-16.379,3.604l3.668,-14.545l12.711,10.941Z" style="fill:none;stroke-width:1px;stroke:#f64747;"/><path d="M259.213,795.698l-16.525,-2.859l8.897,-12.076l7.628,14.935Z" style="fill:none;stroke-width:1px;stroke:#f64747;"/><path d="M2016.43,704.579l6.689,15.379l-14.979,-0.8l8.29,-14.579Z" style="fill:none;stroke-width:1px;stroke:#f64747;"/><path d="M2545.2,293.064l6.689,15.379l-14.979,-0.801l8.29,-14.578Z" style="fill:none;stroke-width:1px;stroke:#f64747;"/><path d="M1076.31,243.5l7.501,14.999l-15,0.002l7.499,-15.001Z" style="fill:none;stroke-width:1px;stroke:#f64747;"/><path d="M2627.54,713.603l9.816,-13.598l6.952,13.292l-16.768,0.306Z" style="fill:none;stroke-width:1px;stroke:#f64747;"/><path d="M3156.31,302.087l9.816,-13.598l6.952,13.292l-16.768,0.306Z" style="fill:none;stroke-width:1px;stroke:#f64747;"/><path d="M1106.15,325.171l8.413,-14.508l8.241,12.533l-16.654,1.975Z" style="fill:none;stroke-width:1px;stroke:#f64747;"/><path d="M2686.09,649.311l-16.755,-0.732l7.288,-13.111l9.467,13.843Z" style="fill:none;stroke-width:1px;stroke:#f64747;"/><path d="M362.474,367.151l11.126,12.547l-14.489,3.883l3.363,-16.43Z" style="fill:none;stroke-width:1px;stroke:#f64747;"/><path d="M1601.61,853.717l4.372,-16.19l11.204,9.974l-15.576,6.216Z" style="fill:none;stroke-width:1px;stroke:#f64747;"/><path d="M700.563,496.664l-16.488,3.066l4.143,-14.417l12.345,11.351Z" style="fill:none;stroke-width:1px;stroke:#f64747;"/><path d="M1524.1,500.063l11.619,12.093l-14.322,4.459l2.703,-16.552Z" style="fill:none;stroke-width:1px;stroke:#f64747;"/><path d="M686.541,1053.07l11.62,12.093l-14.322,4.459l2.702,-16.552Z" style="fill:none;stroke-width:1px;stroke:#f64747;"/><path d="M1932.24,258.502l4.748,-16.084l10.968,10.232l-15.716,5.852Z" style="fill:none;stroke-width:1px;stroke:#f64747;"/><path d="M225.561,727.154l7.038,-15.222l9.362,11.72l-16.4,3.502Z" style="fill:none;stroke-width:1px;stroke:#f64747;"/><path d="M1977.64,770.354l-16.586,2.48l4.65,-14.261l11.936,11.781Z" style="fill:none;stroke-width:1px;stroke:#f64747;"/><path d="M2506.41,358.838l-16.586,2.481l4.65,-14.261l11.936,11.78Z" style="fill:none;stroke-width:1px;stroke:#f64747;"/><path d="M1041.09,311.253l-16.429,3.363l3.881,-14.489l12.548,11.126Z" style="fill:none;stroke-width:1px;stroke:#f64747;"/><path d="M2703.9,713.416l10.594,13l-14.639,3.275l4.045,-16.275Z" style="fill:none;stroke-width:1px;stroke:#f64747;"/><path d="M2090.12,502.684l-16.43,3.363l3.881,-14.489l12.549,11.126Z" style="fill:none;stroke-width:1px;stroke:#f64747;"/><path d="M1182.11,317.38l11.837,11.881l-14.24,4.716l2.403,-16.597Z" style="fill:none;stroke-width:1px;stroke:#f64747;"/><path d="M2643.98,585.609l5.043,-15.995l10.778,10.433l-15.821,5.562Z" style="fill:none;stroke-width:1px;stroke:#f64747;"/><path d="M954.761,1225.3l0.456,-16.764l13.229,7.07l-13.685,9.694Z" style="fill:none;stroke-width:1px;stroke:#f64747;"/><rect x="306.696" y="185.979" width="15" height="15" style="fill:none;stroke-width:1px;stroke:#f64747;"/><path d="M1472.63,987.317l8.24,12.534l12.534,-8.24l-8.24,-12.534l-12.534,8.24Z" style="fill:none;stroke-width:1px;stroke:#f64747;"/><path d="M75.905,837.104l6.01,13.743l13.743,-6.01l-6.01,-13.743l-13.743,6.01Z" style="fill:none;stroke-width:1px;stroke:#f64747;"/><path d="M531.537,449.21l3.882,-14.488l-14.489,-3.883l-3.882,14.489l14.489,3.882Z" style="fill:none;stroke-width:1px;stroke:#f64747;"/><path d="M1577.31,667.369l-14.24,4.716l4.716,14.239l14.239,-4.715l-4.715,-14.24Z" style="fill:none;stroke-width:1px;stroke:#f64747;"/><path d="M270.528,470.74l9.865,-11.3l-11.3,-9.864l-9.865,11.3l11.3,9.864Z" style="fill:none;stroke-width:1px;stroke:#f64747;"/><path d="M375.268,654.837l-13.968,5.469l5.47,13.967l13.967,-5.469l-5.469,-13.967Z" style="fill:none;stroke-width:1px;stroke:#f64747;"/><path d="M1336.68,700.761l12.243,8.666l8.666,-12.243l-12.243,-8.667l-8.666,12.244Z" style="fill:none;stroke-width:1px;stroke:#f64747;"/><path d="M2199.42,321.883l1.463,-14.928l-14.928,-1.463l-1.463,14.928l14.928,1.463Z" style="fill:none;stroke-width:1px;stroke:#f64747;"/><path d="M1590.26,70.363l-1.727,-14.9l-14.9,1.726l1.726,14.9l14.901,-1.726Z" style="fill:none;stroke-width:1px;stroke:#f64747;"/><path d="M883.864,566.675l12.243,8.666l8.667,-12.243l-12.243,-8.667l-8.667,12.244Z" style="fill:none;stroke-width:1px;stroke:#f64747;"/><path d="M1796.72,693.678l12.243,8.666l8.666,-12.243l-12.243,-8.666l-8.666,12.243Z" style="fill:none;stroke-width:1px;stroke:#f64747;"/><path d="M635.182,847.182l0.941,-14.97l-14.971,-0.941l-0.94,14.971l14.97,0.94Z" style="fill:none;stroke-width:1px;stroke:#f64747;"/><path d="M1126.11,849.115l-2.155,-14.844l-14.844,2.154l2.154,14.845l14.845,-2.155Z" style="fill:none;stroke-width:1px;stroke:#f64747;"/><path d="M1917.73,176.98l-14.858,-2.063l-2.062,14.858l14.857,2.062l2.063,-14.857Z" style="fill:none;stroke-width:1px;stroke:#f64747;"/><path d="M233.01,539.376l-14.831,2.248l2.248,14.83l14.831,-2.248l-2.248,-14.83Z" style="fill:none;stroke-width:1px;stroke:#f64747;"/><path d="M1816.64,867.285l10.025,11.157l11.158,-10.025l-10.026,-11.158l-11.157,10.026Z" style="fill:none;stroke-width:1px;stroke:#f64747;"/><path d="M885.497,416.647l10.607,10.606l10.606,-10.607l-10.607,-10.606l-10.606,10.607Z" style="fill:none;stroke-width:1px;stroke:#f64747;"/><path d="M2869.4,802.452l4.483,-14.314l-14.314,-4.483l-4.483,14.314l14.314,4.483Z" style="fill:none;stroke-width:1px;stroke:#f64747;"/><path d="M1798.35,543.651l10.608,10.605l10.605,-10.607l-10.607,-10.606l-10.606,10.608Z" style="fill:none;stroke-width:1px;stroke:#f64747;"/><path d="M1355.65,389.491l3.035,-14.69l-14.69,-3.035l-3.035,14.69l14.69,3.035Z" style="fill:none;stroke-width:1px;stroke:#f64747;"/><path d="M1913.61,719.058l-14.424,4.118l4.118,14.423l14.424,-4.117l-4.118,-14.424Z" style="fill:none;stroke-width:1px;stroke:#f64747;"/><path d="M518.087,942.493l3.035,-14.69l-14.69,-3.035l-3.035,14.69l14.69,3.035Z" style="fill:none;stroke-width:1px;stroke:#f64747;"/><path d="M1919.64,459.61l-14.264,4.64l4.641,14.264l14.264,-4.64l-4.641,-14.264Z" style="fill:none;stroke-width:1px;stroke:#f64747;"/><path d="M887.453,1049.84l-12.737,7.922l7.921,12.738l12.738,-7.922l-7.922,-12.738Z" style="fill:none;stroke-width:1px;stroke:#f64747;"/><path d="M274.768,288.12l0,-15l-15,0l0,15l15,0Z" style="fill:none;stroke-width:1px;stroke:#f64747;"/><path d="M1583.76,970.418l-12.534,8.24l8.24,12.534l12.534,-8.24l-8.24,-12.534Z" style="fill:none;stroke-width:1px;stroke:#f64747;"/><path d="M782.925,371.929l12.853,7.733l7.733,-12.854l-12.854,-7.732l-7.732,12.853Z" style="fill:none;stroke-width:1px;stroke:#f64747;"/><path d="M1374.63,499.765l-0.6,-14.988l-14.988,0.6l0.6,14.988l14.988,-0.6Z" style="fill:none;stroke-width:1px;stroke:#f64747;"/><path d="M537.068,1052.77l-0.6,-14.988l-14.988,0.6l0.6,14.988l14.988,-0.6Z" style="fill:none;stroke-width:1px;stroke:#f64747;"/><path d="M2006.03,388.492l-12.723,7.946l7.946,12.723l12.723,-7.946l-7.946,-12.723Z" style="fill:none;stroke-width:1px;stroke:#f64747;"/><path d="M1415.32,176.356l-10.754,10.456l10.456,10.755l10.755,-10.456l-10.457,-10.755Z" style="fill:none;stroke-width:1px;stroke:#f64747;"/><path d="M2410.95,444.298l14.25,4.685l4.685,-14.25l-14.25,-4.685l-4.685,14.25Z" style="fill:none;stroke-width:1px;stroke:#f64747;"/><path d="M577.758,729.358l-10.755,10.456l10.456,10.755l10.755,-10.456l-10.456,-10.755Z" style="fill:none;stroke-width:1px;stroke:#f64747;"/><path d="M954.296,960.101l-10.449,10.762l10.761,10.449l10.45,-10.761l-10.762,-10.45Z" style="fill:none;stroke-width:1px;stroke:#f64747;"/><path d="M188.291,839.176l-13.744,6.01l6.01,13.744l13.743,-6.01l-6.009,-13.744Z" style="fill:none;stroke-width:1px;stroke:#f64747;"/><path d="M445.022,377.446l14.489,3.883l3.882,-14.489l-14.488,-3.883l-3.883,14.489Z" style="fill:none;stroke-width:1px;stroke:#f64747;"/><path d="M1564.87,779.084l-4.715,-14.24l-14.24,4.716l4.715,14.239l14.24,-4.715Z" style="fill:none;stroke-width:1px;stroke:#f64747;"/><path d="M2154.42,84.867l-10.033,11.151l11.15,10.033l10.034,-11.15l-11.151,-10.034Z" style="fill:none;stroke-width:1px;stroke:#f64747;"/><path d="M649.188,562.092l-10.796,10.414l10.414,10.796l10.796,-10.414l-10.414,-10.796Z" style="fill:none;stroke-width:1px;stroke:#f64747;"/><path d="M1607,507.05l14.633,3.3l3.299,-14.633l-14.632,-3.3l-3.3,14.633Z" style="fill:none;stroke-width:1px;stroke:#f64747;"/><path d="M769.436,1060.05l14.632,3.299l3.3,-14.632l-14.633,-3.3l-3.299,14.633Z" style="fill:none;stroke-width:1px;stroke:#f64747;"/><path d="M201.92,647.396l-2.248,-14.831l-14.83,2.248l2.248,14.831l14.83,-2.248Z" style="fill:none;stroke-width:1px;stroke:#f64747;"/><path d="M1923.98,833.922l-11.157,10.026l10.026,11.157l11.157,-10.025l-10.026,-11.158Z" style="fill:none;stroke-width:1px;stroke:#f64747;"/><path d="M990.901,377.598l-10.606,10.607l10.607,10.606l10.606,-10.608l-10.607,-10.605Z" style="fill:none;stroke-width:1px;stroke:#f64747;"/><path d="M2785.95,727.144l14.315,4.483l4.483,-14.315l-14.315,-4.483l-4.483,14.315Z" style="fill:none;stroke-width:1px;stroke:#f64747;"/><path d="M1903.75,504.601l-10.606,10.607l10.608,10.606l10.606,-10.607l-10.608,-10.606Z" style="fill:none;stroke-width:1px;stroke:#f64747;"/><path d="M2090,782.348l14.468,3.958l3.958,-14.469l-14.468,-3.958l-3.958,14.469Z" style="fill:none;stroke-width:1px;stroke:#f64747;"/><path d="M2618.77,370.832l14.469,3.958l3.958,-14.468l-14.469,-3.958l-3.958,14.468Z" style="fill:none;stroke-width:1px;stroke:#f64747;"/><path d="M1265.12,322.868l14.69,3.035l3.035,-14.69l-14.69,-3.035l-3.035,14.69Z" style="fill:none;stroke-width:1px;stroke:#f64747;"/><path d="M2610.38,509.508l-4.117,-14.423l-14.424,4.117l4.118,14.424l14.423,-4.118Z" style="fill:none;stroke-width:1px;stroke:#f64747;"/><path d="M427.554,875.87l14.69,3.035l3.035,-14.69l-14.69,-3.035l-3.035,14.69Z" style="fill:none;stroke-width:1px;stroke:#f64747;"/><path d="M901.546,1161.36l-7.921,-12.738l-12.738,7.922l7.922,12.738l12.737,-7.922Z" style="fill:none;stroke-width:1px;stroke:#f64747;"/><path d="M177.547,163.518l-10.606,10.607l10.606,10.606l10.607,-10.606l-10.607,-10.607Z" style="fill:none;stroke-width:1px;stroke:#f64747;"/><path d="M1533.05,1120.11l14.69,3.036l3.036,-14.689l-14.689,-3.036l-3.037,14.689Z" style="fill:none;stroke-width:1px;stroke:#f64747;"/><path d="M113.079,978.176l13.968,5.468l5.468,-13.968l-13.968,-5.468l-5.468,13.968Z" style="fill:none;stroke-width:1px;stroke:#f64747;"/><path d="M678.44,330.114l-7.5,-12.99l-12.991,7.5l7.5,12.99l12.991,-7.5Z" style="fill:none;stroke-width:1px;stroke:#f64747;"/><path d="M417.887,755.145l-7.5,-12.99l-12.99,7.5l7.5,12.99l12.99,-7.5Z" style="fill:none;stroke-width:1px;stroke:#f64747;"/><path d="M1397.09,610.044l-6.734,13.403l13.403,6.734l6.734,-13.403l-13.403,-6.734Z" style="fill:none;stroke-width:1px;stroke:#f64747;"/><path d="M2090.7,314.352l14.98,-0.79l-0.79,-14.979l-14.979,0.79l0.789,14.979Z" style="fill:none;stroke-width:1px;stroke:#f64747;"/><path d="M1482.4,85.99l14.473,-3.939l-3.939,-14.473l-14.473,3.939l3.939,14.473Z" style="fill:none;stroke-width:1px;stroke:#f64747;"/><path d="M1018.75,867.842l14.355,-4.354l-4.355,-14.355l-14.354,4.355l4.354,14.354Z" style="fill:none;stroke-width:1px;stroke:#f64747;"/><path d="M627.009,718.571l14.998,0.27l0.269,-14.998l-14.997,-0.269l-0.27,14.997Z" style="fill:none;stroke-width:1px;stroke:#f64747;"/><path d="M1749.93,439.621l-8.014,-12.68l-12.68,8.013l8.014,12.68l12.68,-8.013Z" style="fill:none;stroke-width:1px;stroke:#f64747;"/><path d="M2489.18,25.783l-7.523,12.977l12.977,7.523l7.523,-12.977l-12.977,-7.523Z" style="fill:none;stroke-width:1px;stroke:#f64747;"/><path d="M912.372,992.623l-8.013,-12.68l-12.68,8.013l8.013,12.68l12.68,-8.013Z" style="fill:none;stroke-width:1px;stroke:#f64747;"/><path d="M87.124,538.771l-8.898,12.077l12.077,8.897l8.897,-12.076l-12.076,-8.898Z" style="fill:none;stroke-width:1px;stroke:#f64747;"/><path d="M1896.28,989.519l14.979,0.8l0.8,-14.979l-14.979,-0.8l-0.8,14.979Z" style="fill:none;stroke-width:1px;stroke:#f64747;"/><path d="M971.551,534.452l15,-0.002l-0.001,-15l-15,0.002l0.001,15Z" style="fill:none;stroke-width:1px;stroke:#f64747;"/><path d="M1884.4,661.455l15,-0.001l-0.002,-15l-15,0.001l0.002,15Z" style="fill:none;stroke-width:1px;stroke:#f64747;"/><path d="M2235.84,721.452l-7.432,-13.03l-13.03,7.432l7.432,13.03l13.03,-7.432Z" style="fill:none;stroke-width:1px;stroke:#f64747;"/><path d="M2764.61,309.936l-7.432,-13.029l-13.029,7.432l7.432,13.029l13.029,-7.432Z" style="fill:none;stroke-width:1px;stroke:#f64747;"/><path d="M1406.81,252.869l-8.241,-12.533l-12.533,8.241l8.241,12.533l12.533,-8.241Z" style="fill:none;stroke-width:1px;stroke:#f64747;"/><path d="M2482.69,416.382l-7.287,13.11l13.111,7.288l7.287,-13.111l-13.111,-7.287Z" style="fill:none;stroke-width:1px;stroke:#f64747;"/><path d="M569.25,805.871l-8.241,-12.533l-12.534,8.241l8.242,12.533l12.533,-8.241Z" style="fill:none;stroke-width:1px;stroke:#f64747;"/></svg>