<?xml version="1.0" encoding="UTF-8" standalone="no"?><!DOCTYPE svg PUBLIC "-//W3C//DTD SVG 1.1//EN" "http://www.w3.org/Graphics/SVG/1.1/DTD/svg11.dtd"><svg width="100%" height="100%" viewBox="0 0 788 788" version="1.1" xmlns="http://www.w3.org/2000/svg" xmlns:xlink="http://www.w3.org/1999/xlink" xml:space="preserve" style="fill-rule:evenodd;clip-rule:evenodd;stroke-linejoin:round;stroke-miterlimit:1.41421;"><path d="M704.392,223.904c27.633,50.421 43.358,108.284 43.358,169.834c0,130.604 -70.779,244.629 -176.025,305.991l108.125,-312.625c20.196,-50.504 26.921,-90.887 26.921,-126.796c0,-13.033 -0.858,-25.129 -2.379,-36.404M442.533,227.758c21.313,-1.12 40.517,-3.362 40.517,-3.362c19.075,-2.259 16.825,-30.292 -2.258,-29.175c0,0 -57.342,4.5 -94.359,4.5c-34.783,0 -93.233,-4.5 -93.233,-4.5c-19.092,-1.117 -21.329,28.046 -2.246,29.175c0,0 18.059,2.242 37.133,3.362l55.151,151.121l-77.484,232.346l-128.908,-383.467c21.329,-1.12 40.512,-3.362 40.512,-3.362c19.063,-2.259 16.813,-30.292 -2.262,-29.175c0,0 -57.329,4.5 -94.35,4.5c-6.642,0 -14.471,-0.163 -22.783,-0.429c63.299,-96.1 172.1,-159.563 295.783,-159.563c92.158,0 176.075,35.238 239.054,92.946c-1.525,-0.092 -3.012,-0.283 -4.583,-0.283c-34.775,0 -59.45,30.291 -59.45,62.829c0,29.175 16.833,53.858 34.775,83.029c13.462,23.579 29.187,53.867 29.187,97.633c0,30.296 -11.654,65.459 -26.937,114.442l-35.321,117.979l-127.938,-380.546ZM393.746,747.775c-34.75,0 -68.288,-5.096 -100.013,-14.425l106.23,-308.646l108.808,298.121c0.716,1.75 1.596,3.362 2.533,4.879c-36.796,12.954 -76.333,20.071 -117.558,20.071M39.738,393.738c0,-51.325 11.008,-100.046 30.654,-144.071l168.871,462.675c-118.105,-57.375 -199.525,-178.48 -199.525,-318.605M393.746,0c-217.113,0 -393.746,176.629 -393.746,393.738c0,217.116 176.633,393.766 393.746,393.766c217.108,0 393.75,-176.65 393.75,-393.767c0,-217.108 -176.642,-393.737 -393.75,-393.737" style="fill:#333;fill-rule:nonzero;"/></svg>